# xmcd CD database file generated by LOLA_Freedb v0.9beta0
# 
# Track frame offsets:
#      150
#      36630
#      68162
# 
# Disc length: 1331 seconds
# 
# Revision: 0 
# Processed by: cddbd v1.5.1PL0 Copyright (c) Steve Scherf et al.
# Submitted via: LOLA_Freedb v0.9beta0
# 
DISCID=27053103
DTITLE=xcbvvn - sdkfjgndfkjng
DYEAR=2000
DGENRE=
TTITLE0=gfjjhjhg - fghgjh
TTITLE1=
TTITLE2=
EXTD=
EXTT0=
EXTT1=
EXTT2=
PLAYORDER=
